<?xml version="1.0" standalone="no"?>
<!DOCTYPE svg PUBLIC "-//W3C//DTD SVG 20010904//EN"
 "http://www.w3.org/TR/2001/REC-SVG-20010904/DTD/svg10.dtd">
<svg version="1.0" xmlns="http://www.w3.org/2000/svg"
 width="1280.000000pt" height="1066.000000pt" viewBox="0 0 1280.000000 1066.000000"
 preserveAspectRatio="xMidYMid meet">
<g transform="translate(0.000000,1066.000000) scale(0.100000,-0.100000)"
fill="#000000" stroke="none">
<path d="M3401 9130 c-51 -12 -113 -61 -141 -110 l-25 -45 0 -2090 0 -2090 28
-48 c15 -26 47 -60 69 -75 l42 -27 3075 -3 c2234 -2 3087 0 3114 8 51 15 119
84 135 136 19 64 18 4161 -1 4207 -20 47 -64 95 -111 120 l-41 22 -3055 2
c-1680 0 -3070 -3 -3089 -7z m5989 -425 c16 -8 34 -24 40 -34 7 -13 10 -602
10 -1814 l0 -1794 -27 -27 c-14 -14 -36 -29 -47 -31 -12 -3 -1330 -4 -2929 -3
l-2909 3 -29 33 -29 32 0 1791 0 1791 34 34 34 34 2911 0 c2578 0 2915 -2
2941 -15z"/>
<path d="M6315 8430 c-1655 -10 -2055 -17 -2078 -38 -74 -66 -90 -482 -25
-635 12 -26 29 -52 39 -57 17 -10 813 -23 2104 -35 303 -2 737 -7 966 -11
l415 -6 50 30 c98 58 344 222 344 230 0 4 -8 27 -17 52 -22 61 -22 276 0 338
18 50 27 42 -121 101 l-102 41 -173 -2 c-94 -1 -725 -5 -1402 -8z m-1657 -152
c14 -14 17 -434 4 -456 -7 -9 -47 -12 -168 -10 l-159 3 -3 225 c-1 123 0 230
2 237 7 18 306 19 324 1z"/>
<path d="M7976 7583 l-220 -116 -1328 12 c-731 7 -1332 10 -1335 7 -4 -3 -1
-17 5 -31 l12 -25 1309 0 c1245 0 1311 -1 1320 -18 6 -11 6 -24 0 -35 -9 -16
-90 -17 -1311 -17 l-1300 0 5 -22 c3 -13 9 -56 13 -95 l7 -73 1291 0 c1373 0
1334 1 1324 -46 -3 -19 -27 -19 -1309 -22 l-1306 -2 -6 -88 c-4 -48 -10 -104
-13 -124 l-7 -38 1296 0 c1398 0 1334 2 1320 -50 -5 -20 -10 -20 -1318 -20
l-1312 0 -29 -25 -29 -25 1361 0 1360 0 218 186 c171 146 222 196 237 228 29
66 44 247 31 369 -12 113 -32 181 -53 185 -8 1 -113 -50 -233 -115z"/>
<path d="M4909 6926 c-2 -2 -179 -34 -394 -70 -214 -37 -400 -69 -412 -71 -46
-10 -73 -114 -54 -207 17 -82 32 -93 142 -106 52 -6 227 -27 389 -47 162 -20
347 -42 410 -50 63 -7 340 -41 615 -74 888 -109 977 -119 1160 -141 99 -12
270 -32 379 -46 110 -13 218 -24 240 -23 23 0 356 80 741 177 699 177 700 177
715 207 9 18 15 59 15 105 0 128 26 115 -397 199 -199 40 -370 74 -379 77 -12
3 -64 -43 -165 -146 l-149 -150 -485 -15 c-267 -8 -619 -20 -783 -25 l-299
-10 -551 60 c-650 70 -708 77 -720 89 -8 8 32 210 50 259 4 8 -6 12 -29 12
-19 0 -37 -2 -39 -4z"/>
<path d="M4668 6183 c-42 -93 -36 -369 10 -462 18 -36 7 -30 732 -412 l265
-140 465 75 c1275 207 2843 466 2848 471 10 10 -12 25 -39 25 -24 0 -651 -96
-1074 -165 -49 -8 -335 -53 -635 -100 -300 -47 -583 -91 -630 -99 -485 -79
-891 -139 -897 -133 -9 9 71 455 84 468 7 7 224 36 1033 134 113 14 387 47
610 75 223 27 648 79 945 115 486 59 542 68 562 87 46 43 34 50 -140 84 -88
17 -88 17 -210 -9 -67 -14 -306 -64 -532 -111 -778 -161 -741 -157 -1035 -122
-411 48 -1000 116 -1355 156 -192 22 -487 55 -654 75 -168 19 -311 35 -318 35
-8 0 -24 -21 -35 -47z"/>
<path d="M8445 5929 c-121 -16 -571 -74 -1000 -129 -429 -56 -937 -121 -1130
-146 -192 -25 -351 -46 -352 -48 -4 -4 -43 -211 -43 -229 0 -15 6 -17 33 -12
17 3 149 23 292 45 143 22 287 45 320 50 33 6 177 28 320 50 143 22 346 54
450 70 105 16 350 55 545 85 195 30 396 62 445 70 50 8 164 26 255 41 l165 26
0 79 0 79 -40 -1 c-22 -1 -139 -14 -260 -30z"/>
<path d="M3339 4364 c-9 -21 -119 -174 -245 -339 -993 -1295 -1574 -2055
-1583 -2073 -14 -26 -14 -181 -1 -253 24 -128 108 -237 228 -296 l57 -28 4655
0 4655 0 60 29 c77 38 159 120 192 192 14 31 30 89 36 129 10 67 9 75 -11 109
-12 20 -395 576 -851 1235 -456 658 -839 1218 -852 1243 l-22 46 -591 6 c-632
6 -2822 22 -4616 33 l-1096 6 -15 -39z m6263 -276 c18 -21 625 -886 649 -926
12 -20 12 -24 -1 -32 -20 -13 -7537 -13 -7545 -1 -3 6 42 83 100 173 354 543
524 801 535 808 7 4 1415 6 3129 3 3099 -5 3116 -5 3133 -25z m-2313 -1125
c17 -33 104 -441 97 -458 -6 -16 -65 -16 -889 -10 -490 4 -886 11 -892 16 -6
6 9 92 40 232 l50 222 300 5 c165 3 521 6 792 8 460 2 493 1 502 -15z m-1593
-573 l-7 -60 359 0 c403 0 372 -6 372 76 l0 45 53 -3 52 -3 0 -55 0 -55 345
-7 c190 -5 351 -6 357 -3 9 3 11 21 6 65 l-6 61 54 -3 54 -3 14 -68 c12 -55
12 -70 2 -77 -16 -9 -1753 0 -1764 9 -6 6 5 87 18 129 3 7 23 12 51 12 l47 0
-7 -60z m-1996 -229 l65 -6 3 -38 c2 -26 -1 -39 -12 -43 -24 -9 -359 10 -363
21 -1 6 6 25 17 43 l20 32 102 -1 c57 -1 132 -4 168 -8z m5811 -22 c5 -8 8
-27 7 -44 l-3 -30 -170 0 -170 0 -3 33 c-6 62 4 65 176 60 117 -4 156 -8 163
-19z"/>
<path d="M3640 4010 c-11 -11 -20 -27 -20 -35 0 -13 22 -15 139 -15 139 0 140
0 160 26 11 15 18 30 15 35 -3 5 -66 9 -140 9 -121 0 -136 -2 -154 -20z"/>
<path d="M3980 4010 c-11 -11 -20 -27 -20 -35 0 -13 22 -15 138 -15 145 0 168
6 174 45 3 19 -3 20 -134 23 -127 2 -139 1 -158 -18z"/>
<path d="M4320 4010 c-11 -11 -20 -27 -20 -35 0 -13 23 -15 144 -15 150 0 160
3 168 45 3 19 -3 20 -134 23 -127 2 -139 1 -158 -18z"/>
<path d="M4660 4010 c-11 -11 -20 -27 -20 -35 0 -13 23 -15 144 -15 151 0 172
6 164 47 -3 16 -17 18 -135 21 -122 2 -134 1 -153 -18z"/>
<path d="M5008 4023 c-19 -5 -33 -37 -23 -53 4 -6 63 -10 146 -10 l139 0 12
26 c10 21 9 27 -3 35 -14 9 -238 11 -271 2z"/>
<path d="M5350 4023 c-19 -8 -30 -23 -30 -45 0 -16 13 -18 145 -18 138 0 145
1 156 22 20 38 -10 48 -140 47 -64 0 -123 -3 -131 -6z"/>
<path d="M5683 4020 c-16 -6 -23 -18 -23 -35 l0 -26 148 3 147 3 3 26 c2 20
-2 28 -20 33 -35 9 -230 6 -255 -4z"/>
<path d="M6023 4023 c-17 -3 -23 -11 -23 -32 l0 -28 125 -6 c141 -7 178 0 173
36 -3 19 -11 23 -63 28 -68 8 -179 8 -212 2z"/>
<path d="M6337 4013 c-13 -13 -7 -42 11 -52 19 -10 243 -14 268 -4 8 3 14 18
14 34 l0 29 -143 0 c-79 0 -147 -3 -150 -7z"/>
<path d="M6670 3997 c0 -42 16 -47 150 -47 69 0 131 4 139 9 9 6 11 18 7 35
l-6 26 -145 0 c-145 0 -145 0 -145 -23z"/>
<path d="M7005 4010 c-11 -18 5 -50 28 -55 12 -3 76 -4 142 -3 l120 3 0 30 0
30 -142 3 c-90 2 -144 -1 -148 -8z"/>
<path d="M7337 4013 c-11 -11 -8 -22 13 -43 18 -18 33 -20 149 -20 72 0 132 4
135 9 4 5 2 21 -4 35 l-10 26 -138 0 c-76 0 -142 -3 -145 -7z"/>
<path d="M7670 3995 c0 -37 28 -45 165 -45 135 0 149 6 125 49 -10 20 -19 21
-150 21 l-140 0 0 -25z"/>
<path d="M8000 4001 c0 -44 23 -51 164 -51 73 0 136 3 139 6 7 8 -11 46 -27
56 -6 4 -71 8 -143 8 -125 0 -133 -1 -133 -19z"/>
<path d="M8330 4002 c0 -43 29 -52 167 -52 71 0 133 3 136 6 7 8 -11 46 -27
56 -6 4 -71 8 -143 8 -123 0 -133 -1 -133 -18z"/>
<path d="M8660 4006 c0 -9 9 -25 20 -36 19 -19 31 -20 152 -18 76 2 133 7 134
13 2 6 -3 19 -12 30 -13 18 -29 20 -154 23 -122 3 -140 1 -140 -12z"/>
<path d="M8990 4005 c0 -8 9 -24 20 -35 18 -18 33 -20 155 -20 87 0 135 4 135
10 0 6 -11 22 -25 35 -23 24 -29 25 -155 25 -109 0 -130 -2 -130 -15z"/>
<path d="M3587 3919 c-9 -5 -26 -27 -37 -48 l-19 -39 122 -7 c104 -5 199 2
212 17 8 10 35 68 35 78 0 13 -289 13 -313 -1z"/>
<path d="M3957 3919 c-17 -10 -47 -59 -47 -77 0 -13 233 -24 285 -14 33 6 43
13 58 44 10 21 16 42 12 48 -8 13 -284 13 -308 -1z"/>
<path d="M4318 3913 c-12 -15 -38 -67 -38 -77 0 -8 258 -15 290 -8 27 6 39 16
53 44 10 21 16 42 12 48 -4 6 -64 10 -154 10 -129 0 -150 -2 -163 -17z"/>
<path d="M4694 3922 c-7 -4 -19 -24 -28 -45 -13 -32 -13 -39 -1 -43 30 -12
304 -9 316 3 6 6 12 29 13 50 l1 38 -145 2 c-80 2 -150 0 -156 -5z"/>
<path d="M5058 3918 c-9 -7 -20 -30 -23 -50 -6 -33 -5 -38 16 -42 42 -10 287
-2 299 10 5 5 11 28 13 50 l2 39 -145 3 c-106 2 -150 -1 -162 -10z"/>
<path d="M5421 3917 c-19 -24 -25 -78 -10 -88 23 -14 282 -11 301 4 18 13 27
65 15 85 -12 18 -290 17 -306 -1z"/>
<path d="M5788 3919 c-24 -13 -25 -84 -2 -93 27 -10 274 -7 295 4 25 14 27 85
3 94 -26 10 -278 6 -296 -5z"/>
<path d="M6153 3923 c-20 -7 -17 -89 3 -97 9 -3 73 -6 144 -6 71 0 135 3 144
6 11 4 16 19 16 49 0 36 -4 44 -22 49 -27 7 -268 7 -285 -1z"/>
<path d="M6517 3919 c-24 -14 -23 -75 2 -89 21 -11 268 -14 295 -4 10 4 16 18
16 38 0 58 -6 60 -157 62 -76 1 -146 -2 -156 -7z"/>
<path d="M6882 3919 c-18 -7 -20 -14 -15 -46 3 -21 11 -41 17 -45 15 -10 288
-10 303 0 15 9 6 79 -11 90 -15 9 -268 10 -294 1z"/>
<path d="M7313 3922 l-83 -3 0 -34 c0 -61 14 -66 178 -63 l147 3 -2 39 c-2 22
-6 43 -10 47 -11 9 -129 15 -230 11z"/>
<path d="M7593 3884 c11 -64 13 -65 181 -62 l151 3 -3 25 c-1 13 -9 35 -17 47
-15 22 -20 23 -167 23 l-151 0 6 -36z"/>
<path d="M7950 3906 c0 -23 20 -70 33 -78 7 -4 78 -8 160 -8 164 0 167 2 127
68 l-20 32 -150 0 c-124 0 -150 -3 -150 -14z"/>
<path d="M8306 3912 c-2 -4 5 -26 17 -47 l23 -40 337 -3 c362 -2 355 -4 321
48 -34 51 -28 50 -370 50 -178 0 -325 -4 -328 -8z"/>
<path d="M9030 3906 c0 -7 10 -28 23 -47 l23 -34 152 -3 c102 -2 152 1 152 8
0 14 -30 62 -49 78 -22 18 -301 17 -301 -2z"/>
<path d="M3523 3793 c-19 -4 -73 -71 -73 -92 0 -5 7 -12 16 -15 22 -9 361 -7
409 2 22 4 110 5 195 2 216 -7 217 -7 243 47 19 38 19 45 7 54 -9 6 -76 8
-165 5 -178 -6 -141 -6 -400 -2 -115 2 -220 2 -232 -1z"/>
<path d="M4394 3791 c-22 -10 -62 -87 -50 -98 4 -4 76 -8 161 -8 170 0 173 1
194 64 8 25 8 37 0 41 -15 10 -281 10 -305 1z"/>
<path d="M4771 3788 c-13 -7 -30 -30 -37 -50 -18 -52 -8 -55 154 -56 163 -1
178 3 187 58 4 23 4 44 1 47 -3 4 -68 8 -143 10 -99 2 -145 0 -162 -9z"/>
<path d="M5153 3794 c-36 -8 -58 -96 -27 -108 25 -10 270 -7 297 3 19 7 27 20
32 51 4 23 5 43 3 45 -6 6 -282 14 -305 9z"/>
<path d="M5500 3765 c-17 -46 -12 -74 14 -81 37 -9 294 0 305 11 5 6 11 28 13
50 l3 40 -163 3 -162 2 -10 -25z"/>
<path d="M5876 3774 c-12 -31 -6 -82 10 -88 9 -3 80 -6 159 -6 161 0 168 3
163 67 l-3 38 -161 3 c-141 2 -162 0 -168 -14z"/>
<path d="M6257 3783 c-4 -3 -7 -25 -7 -49 0 -29 5 -44 16 -48 9 -3 80 -6 159
-6 163 0 171 3 160 70 l-7 40 -157 0 c-87 0 -161 -3 -164 -7z"/>
<path d="M6627 3783 c-13 -12 -7 -72 9 -88 13 -13 40 -15 167 -13 l152 3 3 29
c2 15 1 39 -2 52 l-6 24 -159 0 c-87 0 -161 -3 -164 -7z"/>
<path d="M6999 3778 c-3 -39 4 -75 19 -85 11 -9 61 -13 164 -13 166 0 167 0
151 67 l-9 38 -162 3 c-126 2 -162 0 -163 -10z"/>
<path d="M7373 3748 c3 -23 14 -48 23 -55 22 -16 309 -19 319 -3 8 13 -14 82
-29 92 -6 4 -80 8 -165 8 l-154 0 6 -42z"/>
<path d="M7740 3771 c0 -37 22 -81 43 -86 12 -3 85 -4 162 -3 131 3 140 4 143
23 1 11 -7 35 -18 53 l-20 32 -155 0 c-144 0 -155 -1 -155 -19z"/>
<path d="M8110 3777 c0 -29 23 -78 40 -87 25 -13 307 -13 315 0 4 6 -4 29 -17
53 l-23 42 -158 3 c-128 2 -157 0 -157 -11z"/>
<path d="M8505 3780 c-3 -5 3 -27 15 -49 22 -44 35 -49 140 -54 l55 -2 33 -65
c18 -35 39 -68 46 -72 7 -4 60 -11 117 -16 86 -8 93 -9 43 -11 -82 -1 -90 -13
-56 -76 l27 -50 173 -3 c97 -1 172 1 172 7 0 26 -54 100 -81 112 -29 11 -30
14 -14 25 16 12 13 22 -45 124 -34 60 -72 117 -83 125 -18 12 -67 15 -279 15
-154 0 -259 -4 -263 -10z"/>
<path d="M9105 3781 c-7 -13 33 -79 55 -91 27 -14 310 -13 310 1 0 23 -43 81
-67 90 -32 12 -290 12 -298 0z"/>
<path d="M3445 3652 c-28 -7 -84 -72 -85 -99 0 -10 68 -13 308 -13 282 0 310
2 323 18 22 27 39 60 39 76 0 8 -6 16 -12 18 -21 8 -540 7 -573 0z"/>
<path d="M4133 3650 c-20 -8 -63 -76 -63 -100 0 -6 59 -10 170 -10 166 0 170
0 185 23 8 13 17 37 21 54 5 25 2 32 -12 36 -32 8 -278 6 -301 -3z"/>
<path d="M4522 3649 c-25 -9 -66 -89 -53 -102 4 -4 83 -6 176 -5 l169 3 15 47
c8 27 12 50 9 53 -9 9 -293 13 -316 4z"/>
<path d="M5720 3652 c-59 -4 -70 -16 -70 -68 l0 -44 173 2 172 3 3 52 3 52
-118 3 c-65 2 -138 2 -163 0z"/>
<path d="M4879 3623 c-6 -16 -13 -40 -16 -55 l-5 -28 170 0 c191 0 183 -3 197
73 l7 37 -171 0 -171 0 -11 -27z"/>
<path d="M5271 3628 c-17 -48 -21 -77 -10 -84 15 -9 325 -11 334 -2 10 10 24
91 19 100 -3 5 -79 8 -170 8 -161 0 -165 0 -173 -22z"/>
<path d="M6047 3644 c-4 -4 -7 -29 -7 -55 l0 -48 138 -3 c75 -2 153 -1 172 2
35 5 35 5 35 55 l0 50 -166 3 c-91 1 -168 -1 -172 -4z"/>
<path d="M6437 3644 c-4 -4 -7 -29 -7 -55 l0 -47 43 -4 c81 -9 286 -3 297 8 8
8 9 25 3 55 l-9 44 -160 3 c-88 1 -163 -1 -167 -4z"/>
<path d="M6813 3635 c-6 -17 2 -84 12 -93 10 -11 306 -12 325 -2 15 8 18 18
13 48 -10 62 -10 62 -185 62 -134 0 -160 -2 -165 -15z"/>
<path d="M7200 3606 c0 -27 6 -48 15 -56 18 -15 286 -23 322 -9 20 7 21 11 11
46 -17 64 -15 63 -189 63 l-159 0 0 -44z"/>
<path d="M7580 3633 c0 -10 5 -35 10 -55 10 -34 14 -37 53 -42 56 -6 224 -6
266 0 31 5 33 7 27 37 -3 17 -13 41 -21 54 -15 22 -20 23 -175 23 -146 0 -160
-2 -160 -17z"/>
<path d="M7965 3640 c-7 -11 12 -79 26 -95 12 -12 311 -16 330 -4 12 7 10 16
-11 56 l-25 48 -157 3 c-101 2 -159 -1 -163 -8z"/>
<path d="M8340 3635 c0 -9 9 -33 20 -54 24 -47 39 -51 212 -51 101 0 130 3
134 14 7 19 -31 92 -51 100 -9 3 -84 6 -166 6 -127 0 -149 -2 -149 -15z"/>
<path d="M9187 3644 c-8 -8 27 -76 49 -95 20 -17 300 -26 323 -10 11 7 8 17
-17 54 -17 24 -39 47 -47 51 -22 8 -300 8 -308 0z"/>
<path d="M3405 3500 l-80 -5 -32 -49 c-18 -26 -33 -52 -33 -57 0 -10 399 -13
425 -3 15 6 70 102 63 110 -7 6 -261 9 -343 4z"/>
<path d="M3804 3492 c-13 -8 -54 -86 -54 -102 0 -7 57 -10 177 -8 l177 3 23
40 c43 76 45 75 -144 75 -93 0 -173 -4 -179 -8z"/>
<path d="M4206 3493 c-9 -9 -46 -93 -46 -104 0 -11 341 -12 356 -1 9 6 44 89
44 105 0 9 -344 9 -354 0z"/>
<path d="M4611 3487 c-15 -19 -41 -94 -34 -101 9 -9 336 -7 349 2 11 7 34 74
34 100 0 18 -333 17 -349 -1z"/>
<path d="M5005 3468 c-7 -18 -15 -44 -17 -58 l-3 -25 180 0 180 0 11 52 c6 29
9 55 6 58 -3 3 -81 5 -174 5 l-169 0 -14 -32z"/>
<path d="M5411 3477 c-5 -13 -11 -39 -13 -58 l-3 -34 180 0 180 0 7 49 c4 28
5 53 2 58 -3 4 -82 8 -175 8 -169 0 -170 0 -178 -23z"/>
<path d="M5815 3488 c-3 -7 -6 -33 -7 -58 l-3 -45 177 -3 178 -2 5 23 c4 14 5
39 3 58 l-3 34 -173 3 c-133 2 -174 0 -177 -10z"/>
<path d="M6214 3486 c-3 -7 -4 -33 -2 -57 l3 -44 175 0 175 0 0 55 0 55 -173
3 c-141 2 -173 0 -178 -12z"/>
<path d="M6617 3494 c-9 -9 -9 -77 -1 -98 5 -14 31 -16 179 -16 96 0 176 3
178 8 2 4 1 30 -2 57 l-6 50 -171 3 c-93 1 -173 -1 -177 -4z"/>
<path d="M7015 3488 c-3 -7 -2 -33 3 -58 l8 -45 178 -3 178 -2 -7 47 c-4 27
-12 54 -17 61 -8 9 -55 12 -175 12 -122 0 -165 -3 -168 -12z"/>
<path d="M7415 3453 c4 -27 12 -54 17 -60 8 -10 57 -13 181 -13 l170 0 -7 41
c-13 82 -6 79 -197 79 l-171 0 7 -47z"/>
<path d="M7807 3493 c-2 -5 3 -30 12 -58 l16 -50 175 0 c196 0 189 -3 152 75
l-17 35 -167 3 c-91 1 -168 -1 -171 -5z"/>
<path d="M8200 3490 c0 -18 33 -95 44 -102 18 -12 626 -10 626 2 0 16 -41 94
-54 102 -17 12 -616 10 -616 -2z"/>
<path d="M9270 3487 c0 -7 13 -34 30 -60 l30 -47 170 0 c93 0 170 4 170 9 0
12 -49 84 -68 99 -23 18 -332 17 -332 -1z"/>
<path d="M4908 3343 c-92 -2 -139 -7 -145 -16 -10 -13 -33 -87 -33 -106 0 -17
354 -15 368 2 11 13 37 106 31 111 -9 9 -94 12 -221 9z"/>
<path d="M5200 3340 c-19 -4 -28 -16 -38 -54 -7 -26 -11 -54 -8 -62 5 -12 153
-14 1040 -14 593 0 1037 4 1040 9 7 11 -9 100 -20 111 -10 9 -1976 19 -2014
10z"/>
<path d="M8585 3341 c-23 -5 -29 -11 -27 -26 6 -33 40 -92 57 -99 28 -10 333
-7 340 4 3 6 -6 34 -22 62 -22 41 -35 54 -58 59 -40 9 -252 8 -290 0z"/>
<path d="M8970 3341 c-12 -8 -10 -17 10 -61 13 -28 32 -56 41 -61 24 -12 336
-12 344 1 7 11 -38 91 -62 112 -20 16 -310 24 -333 9z"/>
<path d="M9383 3343 c-13 -2 -23 -9 -23 -14 0 -19 52 -99 70 -109 23 -12 337
-13 344 -2 7 11 -54 110 -74 118 -18 8 -285 14 -317 7z"/>
<path d="M3218 3323 c-22 -27 -58 -89 -58 -102 0 -13 647 -16 666 -3 16 10 64
108 57 116 -4 3 -151 6 -328 6 -294 0 -323 -2 -337 -17z"/>
<path d="M3932 3328 c-5 -7 -19 -35 -30 -61 -16 -36 -18 -49 -9 -53 7 -2 91
-3 187 -2 l175 3 17 36 c9 20 20 48 24 63 l6 26 -180 0 c-132 0 -182 -3 -190
-12z"/>
<path d="M4351 3327 c-15 -18 -41 -83 -41 -102 0 -13 25 -15 179 -15 138 0
181 3 190 14 14 17 40 103 33 110 -3 4 -83 6 -177 6 -131 0 -175 -3 -184 -13z"/>
<path d="M7268 3335 c-9 -9 11 -108 24 -117 7 -4 89 -8 181 -8 190 0 187 -1
165 77 l-14 48 -175 3 c-96 1 -178 0 -181 -3z"/>
<path d="M7670 3328 c0 -31 23 -94 38 -105 11 -9 65 -13 185 -13 l170 0 -6 35
c-3 19 -12 47 -19 62 l-13 28 -178 3 c-138 2 -177 0 -177 -10z"/>
<path d="M8080 3327 c0 -7 7 -35 16 -60 11 -32 23 -49 37 -52 12 -3 110 -4
217 -3 l195 3 -2 22 c-2 13 -11 40 -20 60 l-18 38 -213 3 c-172 2 -212 0 -212
-11z"/>
<path d="M5803 2918 c-14 -19 -87 -358 -78 -366 7 -8 1512 -15 1531 -8 10 4
-23 172 -70 362 l-6 24 -684 0 c-535 0 -686 -3 -693 -12z"/>
</g>
</svg>
